<?xml version="1.0" encoding="iso-8859-1"?>
<!-- Generator: Adobe Illustrator 19.0.0, SVG Export Plug-In . SVG Version: 6.00 Build 0)  -->
<svg version="1.1" id="Layer_1" xmlns="http://www.w3.org/2000/svg" xmlns:xlink="http://www.w3.org/1999/xlink" x="0px" y="0px"
	 viewBox="0 0 464 464" style="enable-background:new 0 0 464 464;" xml:space="preserve">
<g>
	<circle style="fill:#E74C3C;" cx="232" cy="184" r="40"/>
	<path style="fill:#E74C3C;" d="M250.016,219.528C244.584,222.296,238.52,224,232,224s-12.584-1.704-18.016-4.472
		C196.408,226.656,184,243.864,184,264v56h96v-56C280,243.864,267.592,226.656,250.016,219.528z"/>
</g>
<g>
	<circle style="fill:#66CEDB;" cx="416" cy="40" r="40"/>
	<path style="fill:#66CEDB;" d="M434.016,75.528C428.584,78.296,422.52,80,416,80s-12.584-1.704-18.016-4.472
		C380.408,82.656,368,99.864,368,120v56h96v-56C464,99.864,451.592,82.656,434.016,75.528z"/>
	<circle style="fill:#66CEDB;" cx="48" cy="40" r="40"/>
	<path style="fill:#66CEDB;" d="M66.016,75.528C60.584,78.296,54.52,80,48,80s-12.584-1.704-18.016-4.472
		C12.408,82.656,0,99.864,0,120v56h96v-56C96,99.864,83.592,82.656,66.016,75.528z"/>
	<circle style="fill:#66CEDB;" cx="416" cy="328" r="40"/>
	<path style="fill:#66CEDB;" d="M434.016,363.528C428.584,366.296,422.52,368,416,368s-12.584-1.704-18.016-4.472
		C380.408,370.656,368,387.864,368,408v56h96v-56C464,387.864,451.592,370.656,434.016,363.528z"/>
	<circle style="fill:#66CEDB;" cx="48" cy="328" r="40"/>
	<path style="fill:#66CEDB;" d="M66.016,363.528C60.584,366.296,54.52,368,48,368s-12.584-1.704-18.016-4.472
		C12.408,370.656,0,387.864,0,408v56h96v-56C96,387.864,83.592,370.656,66.016,363.528z"/>
</g>
<g>
	<rect x="40" y="200" style="fill:#F6BF58;" width="16" height="64"/>
	<rect x="408" y="200" style="fill:#F6BF58;" width="16" height="64"/>
	<rect x="120" y="416" style="fill:#F6BF58;" width="224" height="16"/>
	<rect x="120" y="32" style="fill:#F6BF58;" width="224" height="16"/>
	
		<rect x="286.053" y="136.001" transform="matrix(-0.7071 0.7071 -0.7071 -0.7071 648.0854 19.5567)" style="fill:#F6BF58;" width="67.879" height="16"/>
	
		<rect x="135.999" y="110.057" transform="matrix(-0.7071 0.7071 -0.7071 -0.7071 347.6426 143.996)" style="fill:#F6BF58;" width="16" height="67.879"/>
	
		<rect x="319.996" y="294.057" transform="matrix(-0.7071 0.7071 -0.7071 -0.7071 791.8525 327.9983)" style="fill:#F6BF58;" width="16" height="67.879"/>
	
		<rect x="102.093" y="320.006" transform="matrix(-0.7071 0.7071 -0.7071 -0.7071 464.157 463.7519)" style="fill:#F6BF58;" width="67.879" height="16"/>
</g>
<g>
</g>
<g>
</g>
<g>
</g>
<g>
</g>
<g>
</g>
<g>
</g>
<g>
</g>
<g>
</g>
<g>
</g>
<g>
</g>
<g>
</g>
<g>
</g>
<g>
</g>
<g>
</g>
<g>
</g>
</svg>
