<?xml version="1.0" encoding="iso-8859-1"?>
<!-- Generator: Adobe Illustrator 19.1.0, SVG Export Plug-In . SVG Version: 6.00 Build 0)  -->
<svg xmlns="http://www.w3.org/2000/svg" xmlns:xlink="http://www.w3.org/1999/xlink" version="1.1" id="Capa_1" x="0px" y="0px" viewBox="0 0 486.11 486.11" style="enable-background:new 0 0 486.11 486.11;" xml:space="preserve" width="512px" height="512px">
<g>
	<g>
		<path d="M311.941,350.909l-55.4-35.9v-66c0-7.5-6.1-13.5-13.5-13.5s-13.5,6.1-13.5,13.5v66l-55.4,35.9c-6.2,4.1-8,12.4-4,18.7    c3.9,6,12.6,7.9,18.7,4l54.2-35.2l54.2,35.2c2.2,1.4,4.7,2.2,7.3,2.2c4.6,0,8.8-2.3,11.3-6.2    C319.941,363.309,318.141,354.909,311.941,350.909z" fill="#FFFFFF"/>
		<path d="M265.341,129.609L265.341,129.609v-8.1c0,0,25.5,0.8,37.7-11.6c0,0-17.6-5-14.5-37.1c3.2-32.1-4-60.3-29.8-57.9    c0,0-11.2-13.5-33.4-5c-7.6,2.9-28.1,10.3-27.1,54.7c1,44.5-15.8,44.7-15.8,44.7s8.7,12.6,38.2,12.4v8.3l22.4,65.5l22.4-65.3    L265.341,129.609z" fill="#FFFFFF"/>
		<path d="M163.441,200.009h78.6h2.1h78.5c1.9,0,3.3-1.7,2.9-3.5l-4.5-24.9c-1.5-8.1-6.7-15-14-18.6l-28.2-13.9    c-1.6-0.8-3.2-1.7-4.8-2.6l8.9,26.3l-12.4-1l-27.5,33.7l-27.4-33.8l-12.4,1l9.1-26.3l-5.6,2.9l-27.7,13.7    c-7.4,3.6-12.6,10.5-14,18.6l-4.5,24.9C160.241,198.309,161.641,200.009,163.441,200.009z" fill="#FFFFFF"/>
		<path d="M425.941,408.709L425.941,408.709v-8.1c0,0,25.5,0.8,37.7-11.6c0,0-17.6-5-14.5-37.1c3.2-32.1-4-60.3-29.8-57.9    c0,0-11.2-13.5-33.4-5c-7.6,2.9-28.1,10.3-27.1,54.7c1,44.5-15.8,44.7-15.8,44.7s8.7,12.6,38.2,12.4v8.3l22.4,65.5l22.4-65.3    L425.941,408.709z" fill="#FFFFFF"/>
		<path d="M486.041,475.509l-4.5-24.9c-1.5-8.1-6.7-15-14-18.6l-28.2-13.9c-1.6-0.8-3.2-1.7-4.8-2.6l8.9,26.3l-12.4-1l-27.4,33.8    l-27.4-33.8l-12.4,1l9.1-26.3l-5.6,2.9l-27.5,13.6c-7.4,3.6-12.6,10.5-14,18.6l-4.5,24.9c-0.3,1.8,1.1,3.5,2.9,3.5h78.5h2.1h78.5    C485.041,479.009,486.441,477.409,486.041,475.509z" fill="#FFFFFF"/>
		<path d="M104.841,408.709L104.841,408.709v-8.1c0,0,25.5,0.8,37.7-11.6c0,0-17.6-5-14.5-37.1c3.2-32.1-4-60.3-29.8-57.9    c0,0-11.2-13.5-33.4-5c-7.6,2.9-28.1,10.3-27.1,54.7c1,44.5-15.8,44.7-15.8,44.7s8.7,12.6,38.2,12.4v8.3l22.4,65.5l22.4-65.3    L104.841,408.709z" fill="#FFFFFF"/>
		<path d="M160.541,450.609c-1.5-8.1-6.7-15-14-18.6l-28.3-13.9c-1.6-0.8-3.2-1.7-4.8-2.6l8.9,26.3l-12.4-1l-27.4,33.8l-27.5-33.8    l-12.4,1l9.1-26.3l-5.6,2.9l-27.5,13.6c-7.4,3.6-12.6,10.5-14,18.6l-4.6,24.9c-0.3,1.8,1.1,3.5,2.9,3.5h78.5h2.1h78.5    c1.9,0,3.3-1.7,2.9-3.5L160.541,450.609z" fill="#FFFFFF"/>
	</g>
</g>
<g>
</g>
<g>
</g>
<g>
</g>
<g>
</g>
<g>
</g>
<g>
</g>
<g>
</g>
<g>
</g>
<g>
</g>
<g>
</g>
<g>
</g>
<g>
</g>
<g>
</g>
<g>
</g>
<g>
</g>
</svg>
