<?xml version="1.0" encoding="iso-8859-1"?>
<!-- Generator: Adobe Illustrator 19.0.0, SVG Export Plug-In . SVG Version: 6.00 Build 0)  -->
<svg xmlns="http://www.w3.org/2000/svg" xmlns:xlink="http://www.w3.org/1999/xlink" version="1.1" id="Capa_1" x="0px" y="0px" viewBox="0 0 512 512" style="enable-background:new 0 0 512 512;" xml:space="preserve" width="512px" height="512px">
<g>
	<g>
		<g>
			<path d="M480,32H320V16c0-8.837-7.163-16-16-16h-96c-8.837,0-16,7.163-16,16v16H32C14.327,32,0,46.327,0,64v320     c0,17.673,14.327,32,32,32h105.44l-68.8,68.64L91.2,507.2l91.36-91.2H240v96h32v-96h57.44l91.36,91.36l22.56-22.56l-68.8-68.8     H480c17.673,0,32-14.327,32-32V64C512,46.327,497.673,32,480,32z M480,384H32V64h448V384z" fill="#FFFFFF"/>
			<path d="M214.56,240H304c4.253,0.025,8.341-1.645,11.36-4.64l68.64-68.8V208h32v-80c0-8.837-7.163-16-16-16h-80v32h41.44l-64,64     H208c-4.253-0.025-8.341,1.645-11.36,4.64l-96,96l22.56,22.56L214.56,240z" fill="#FFFFFF"/>
		</g>
	</g>
</g>
<g>
</g>
<g>
</g>
<g>
</g>
<g>
</g>
<g>
</g>
<g>
</g>
<g>
</g>
<g>
</g>
<g>
</g>
<g>
</g>
<g>
</g>
<g>
</g>
<g>
</g>
<g>
</g>
<g>
</g>
</svg>
